<?xml version="1.0" standalone="no"?>
<!DOCTYPE svg PUBLIC "-//W3C//DTD SVG 20010904//EN"
 "http://www.w3.org/TR/2001/REC-SVG-20010904/DTD/svg10.dtd">
<svg version="1.0" xmlns="http://www.w3.org/2000/svg"
 width="192.000000pt" height="192.000000pt" viewBox="0 0 192.000000 192.000000"
 preserveAspectRatio="xMidYMid meet">
<metadata>
Created by potrace 1.14, written by Peter Selinger 2001-2017
</metadata>
<g transform="translate(0.000000,192.000000) scale(0.100000,-0.100000)"
fill="#000000" stroke="none">
<path d="M741 1778 c-159 -35 -268 -94 -377 -204 -96 -96 -157 -204 -195 -344
-13 -48 -18 -244 -8 -295 33 -156 108 -295 216 -395 186 -175 424 -239 673
-180 61 14 195 72 221 96 15 13 31 0 175 -144 88 -87 174 -164 192 -171 18 -8
46 -11 65 -7 34 6 96 56 98 78 0 7 2 22 5 33 10 53 -8 80 -169 242 l-160 162
37 70 c149 284 108 607 -105 835 -176 189 -434 275 -668 224z m301 -226 c212
-76 349 -266 349 -487 0 -316 -282 -556 -595 -507 -42 6 -84 16 -93 21 -10 5
-40 20 -68 32 -27 13 -80 53 -116 89 -99 98 -148 208 -154 346 -9 242 157 462
393 518 78 19 213 13 284 -12z"/>
<path d="M577 1234 c-1 -1 -16 -4 -33 -7 -67 -10 -130 -60 -149 -118 -26 -77
24 -162 114 -195 25 -10 58 -29 73 -45 42 -42 121 -60 226 -50 25 2 11 20 -16
19 -35 -1 -73 11 -94 30 -25 21 -23 26 18 41 69 25 126 93 127 151 1 65 -55
136 -127 160 -30 10 -132 20 -139 14z m111 -47 c53 -50 51 -200 -5 -256 -40
-39 -138 -16 -163 38 -17 38 -20 127 -6 169 26 76 117 101 174 49z"/>
<path d="M900 1217 c14 -6 27 -15 30 -19 3 -4 5 -67 5 -140 l0 -133 -35 -12
-35 -12 30 -1 c46 -2 147 -2 180 0 l30 2 -32 9 c-33 10 -33 10 -33 74 0 40 4
65 11 65 6 0 43 -34 82 -76 l72 -75 55 -1 c86 0 87 1 55 21 -16 10 -53 43 -82
74 -44 48 -49 57 -33 62 96 30 91 136 -7 164 -17 5 -95 9 -174 10 -118 0 -139
-2 -119 -12z m246 -28 c36 -37 18 -107 -30 -117 -70 -14 -71 -14 -74 67 l-3
74 47 -6 c25 -2 52 -11 60 -18z"/>
</g>
</svg>
