<?xml version="1.0" encoding="UTF-8"?>
<!DOCTYPE svg PUBLIC "-//W3C//DTD SVG 1.1//EN" "http://www.w3.org/Graphics/SVG/1.1/DTD/svg11.dtd">
<!-- Creator: CorelDRAW 2017 -->
<svg xmlns="http://www.w3.org/2000/svg" xml:space="preserve" width="512px" height="512px" version="1.1" style="shape-rendering:geometricPrecision; text-rendering:geometricPrecision; image-rendering:optimizeQuality; fill-rule:evenodd; clip-rule:evenodd"
viewBox="0 0 512 512"
 xmlns:xlink="http://www.w3.org/1999/xlink">
 <defs>
  <style type="text/css">
   <![CDATA[
    .str0 {stroke:#2B2A29;stroke-width:2}
    .fil0 {fill:#FEFEFE}
    .fil2 {fill:black}
    .fil1 {fill:#4C439B}
   ]]>
  </style>
 </defs>
 <g id="Слой_x0020_1">
  <metadata id="CorelCorpID_0Corel-Layer"/>
  <rect class="fil0 str0" x="-73" y="-43" width="618" height="600"/>
  <g id="_2081150065696">
   <path class="fil1" d="M383 228c0,12 -2,23 -4,35 0,2 -1,5 -2,7l-8 21c-5,10 -11,20 -17,29 -1,1 -3,4 -4,5 -10,11 -14,14 -24,23 -3,2 -3,2 -6,4l-11 7c-8,5 -24,11 -33,14l-2 1c0,0 -1,0 -1,0 -8,3 -31,5 -41,5 -7,0 -31,-3 -38,-6 -6,-2 -11,-3 -16,-5 -1,-1 -1,0 -3,-1 -5,-2 -13,-5 -17,-9l-18 -12c-7,-5 -16,-14 -22,-21 -1,-1 -2,-2 -3,-4l-5 -7c-6,-7 -9,-16 -13,-25 -1,-2 -2,-3 -2,-4 -1,-2 -1,-4 -2,-5l-3 -11c-3,-7 -3,-14 -4,-20 -1,-4 0,0 -1,-3 -1,-5 -1,-27 0,-33 0,-4 1,-1 2,-6 1,-4 1,-8 2,-12 0,-2 1,-4 1,-5 4,-13 9,-24 15,-36 1,-3 3,-5 5,-8 1,-1 0,-1 1,-2 3,-5 7,-10 11,-14 1,-1 2,-2 4,-4 1,-2 2,-2 3,-4 3,-3 5,-4 7,-6l16 -12c2,-1 3,-2 5,-3l35 -16c0,0 0,0 1,0 0,0 0,0 1,0 10,-4 38,-7 47,-6 6,1 12,0 19,2 3,1 2,1 6,1 12,2 22,6 33,10 2,1 3,1 5,2l21 12c11,9 22,17 31,28 1,2 2,2 3,4l5 7c0,0 0,1 1,1 1,2 2,3 3,5 2,3 3,5 5,9l6 12c6,12 8,26 10,39 1,5 1,12 1,17zm-362 -10c0,18 0,23 2,40 1,16 6,28 10,43l4 9c1,1 1,2 1,3 6,14 14,28 23,40l11 15c3,3 5,5 8,9 3,3 6,6 9,9l30 23c6,3 11,7 17,10l12 6c13,5 20,8 34,11l7 2c7,2 17,3 24,3 3,0 6,0 9,0 12,1 44,0 55,-4 0,0 0,0 1,0 0,0 0,0 1,0l15 -4c14,-4 28,-10 41,-17 5,-3 10,-5 14,-8 2,-2 3,-3 6,-3 6,4 20,19 26,25 21,21 41,42 63,62 10,9 17,9 30,9 7,0 15,-4 19,-8 12,-11 13,-18 13,-34 0,-6 -3,-12 -6,-16 -6,-9 -65,-66 -79,-80 -3,-3 -10,-11 -13,-13 1,-1 1,-2 2,-2l1 -2c3,-4 -2,3 1,-1 5,-7 19,-33 21,-42l6 -20c0,-2 0,-2 1,-4 2,-6 4,-13 4,-19l1 -12c1,-3 1,0 1,-4l-2 -41c-1,-7 -1,-15 -3,-21l-20 -53 -18 -28c0,0 0,0 0,0l-7 -8c-16,-19 -36,-36 -57,-47 -2,-1 -2,-2 -4,-2 -3,-2 -6,-2 -9,-4l-26 -11c-5,-2 -24,-6 -30,-7 -4,-1 -7,-1 -11,-1 -19,-3 -56,-2 -75,4 -2,1 -3,1 -5,1 -10,2 -29,9 -37,13 -3,2 -5,2 -8,4l-1 1c0,0 0,0 0,0 -4,3 -14,8 -21,14 -7,5 -14,11 -20,17l-18 19c-1,1 -2,2 -3,3l-8 11c-5,7 -10,15 -15,23 -4,6 -7,14 -10,21 -1,2 -1,3 -2,5l-9 29c-2,11 -4,23 -4,34z"/>
   <path class="fil2" d="M123 230c0,-56 45,-51 57,-34 11,15 18,78 -25,78 -25,0 -33,-22 -33,-44zm-34 -6c0,17 1,21 11,34 7,9 23,17 36,20 5,1 3,0 6,4 8,12 27,20 41,20 9,0 26,1 33,-1l0 -6c-12,0 -19,0 -29,-4 -5,-2 -12,-8 -14,-13 5,0 14,-4 19,-5l8 -4c5,-3 12,-10 15,-14 17,-22 8,-57 -28,-70 -29,-10 -74,-5 -91,21 -3,4 -7,13 -7,19z"/>
   <path class="fil2" d="M282 228l-2 0 0 -40c0,-3 1,-2 4,-2 8,0 18,1 24,3 13,6 17,37 -12,38 -5,0 -8,1 -14,1zm-33 -34l0 70c0,9 -6,9 -14,9 -4,0 -4,0 -4,4l65 0 0 -4c-21,0 -17,-3 -17,-40 12,0 6,-1 17,11l10 11c2,2 3,3 5,5 1,2 15,17 17,17l39 0c0,-5 -1,-4 -6,-5 -5,-1 -15,-12 -18,-16 -4,-5 -19,-19 -22,-24 6,0 17,-5 21,-10 12,-14 4,-31 -13,-37 -8,-3 -18,-4 -28,-4l-68 0c-3,0 -4,3 -1,4 4,2 16,-2 16,10z"/>
  </g>
 </g>
</svg>
