<?xml version="1.0" standalone="no"?>
<!DOCTYPE svg PUBLIC "-//W3C//DTD SVG 20010904//EN"
 "http://www.w3.org/TR/2001/REC-SVG-20010904/DTD/svg10.dtd">
<svg version="1.0" xmlns="http://www.w3.org/2000/svg"
 width="512.000000pt" height="512.000000pt" viewBox="0 0 512.000000 512.000000"
 preserveAspectRatio="xMidYMid meet">
<metadata>
Created by potrace 1.14, written by Peter Selinger 2001-2017
</metadata>
<g transform="translate(0.000000,512.000000) scale(0.100000,-0.100000)"
fill="#000000" stroke="none">
<path d="M2165 4771 c-3 -2 -20 -5 -37 -6 -88 -6 -300 -51 -378 -80 -25 -9
-65 -23 -90 -31 -57 -19 -294 -134 -298 -145 -2 -5 -8 -9 -13 -9 -14 0 -147
-91 -221 -151 -123 -101 -291 -277 -361 -379 -53 -78 -90 -136 -124 -197 -62
-110 -168 -367 -158 -383 3 -5 1 -11 -4 -14 -5 -3 -12 -23 -17 -43 -4 -21 -8
-40 -9 -43 -8 -28 -26 -123 -30 -155 -3 -22 -8 -56 -11 -75 -9 -51 -11 -378
-3 -425 4 -22 10 -62 13 -90 4 -27 9 -57 12 -66 2 -10 7 -30 9 -45 2 -16 8
-44 14 -61 5 -18 8 -33 5 -33 -3 0 1 -10 8 -22 7 -13 11 -26 10 -31 -3 -11 62
-181 102 -268 53 -113 161 -294 196 -329 3 -3 21 -25 40 -50 19 -25 39 -51 45
-58 5 -7 52 -55 102 -107 99 -100 214 -194 330 -269 88 -57 286 -157 338 -172
6 -1 35 -12 65 -24 65 -24 266 -76 330 -85 25 -3 63 -8 85 -11 48 -7 383 -7
440 -1 89 11 132 19 229 42 55 14 111 28 123 30 12 3 43 14 69 25 26 11 55 22
65 23 9 2 24 9 33 16 9 7 16 10 16 7 0 -4 12 -1 28 8 15 8 56 29 91 46 84 42
128 67 178 101 23 16 47 29 53 29 6 0 196 -185 422 -410 464 -464 471 -470
611 -475 98 -3 174 27 248 100 74 72 94 121 96 235 1 61 -2 99 -10 109 -7 8
-10 15 -7 15 3 1 -9 26 -27 56 -22 39 -150 174 -437 460 -223 223 -406 408
-406 412 0 3 6 13 14 21 30 30 166 275 171 307 0 3 3 10 7 16 11 17 78 204 73
204 -3 0 0 12 6 28 18 44 40 143 34 152 -3 5 0 12 6 15 5 4 8 13 5 20 -2 7 -2
16 2 20 4 4 8 16 9 28 0 12 4 45 7 72 8 60 9 353 3 410 -14 117 -20 149 -43
247 -14 59 -26 111 -26 115 -1 5 -16 45 -34 91 -18 45 -31 82 -29 82 2 0 -27
61 -65 135 -70 136 -145 254 -228 355 -73 90 -241 251 -327 315 -44 33 -81 63
-83 68 -2 4 -8 7 -14 7 -5 0 -28 13 -51 28 -119 81 -400 206 -510 226 -12 3
-22 5 -22 6 0 2 -5 3 -105 25 -41 8 -93 18 -115 20 -22 3 -53 8 -70 11 -37 7
-374 12 -380 5z m230 -561 c0 -1 25 -3 55 -4 79 -4 142 -15 247 -42 293 -77
560 -258 741 -502 48 -65 133 -202 138 -222 0 -3 13 -32 28 -65 15 -32 28 -67
29 -77 1 -10 5 -18 9 -18 4 0 7 -3 7 -7 -1 -5 0 -10 1 -13 1 -3 3 -12 5 -20 1
-8 8 -35 15 -60 7 -25 14 -55 16 -67 2 -13 6 -35 9 -50 22 -129 23 -271 0
-452 -16 -135 -113 -383 -201 -515 -21 -32 -43 -66 -49 -74 -20 -31 -71 -88
-140 -157 -90 -90 -116 -111 -195 -163 -36 -23 -70 -45 -75 -49 -22 -17 -89
-48 -97 -45 -4 1 -8 -3 -8 -9 0 -5 -4 -7 -10 -4 -5 3 -10 2 -10 -3 0 -17 -266
-100 -341 -107 -24 -2 -44 -4 -44 -5 0 -5 -111 -12 -190 -12 -126 -1 -230 12
-339 42 -118 32 -140 40 -246 88 -37 16 -172 93 -180 102 -3 3 -32 25 -65 50
-54 40 -235 212 -235 224 0 3 -21 33 -47 68 -27 35 -55 77 -63 93 -8 17 -17
32 -20 35 -5 5 -33 60 -35 70 0 3 -6 15 -14 28 -14 25 -61 148 -66 172 -2 8
-4 15 -5 15 -1 0 -3 9 -5 20 -2 11 -11 54 -20 95 -8 41 -13 80 -11 87 3 7 1
13 -4 13 -9 0 -12 46 -11 200 0 99 13 197 38 290 8 30 16 66 19 79 3 13 16 50
29 82 13 33 21 59 17 59 -4 0 -2 4 3 8 6 4 25 36 43 72 98 198 247 370 437
508 107 78 332 180 435 198 14 3 39 9 55 14 39 11 103 20 189 26 39 2 71 6 72
7 3 3 89 0 89 -3z"/>
<path d="M1420 3266 c-173 -50 -289 -138 -353 -266 -29 -59 -32 -73 -31 -155
0 -49 3 -100 7 -113 22 -79 103 -183 187 -239 72 -48 141 -75 247 -97 7 -1 22
-15 34 -32 69 -89 196 -163 311 -180 61 -9 325 -10 349 -2 10 4 19 17 19 28 0
17 -7 20 -52 21 -176 2 -278 49 -341 156 -5 7 -1 12 10 11 10 0 29 3 42 6 159
37 300 144 364 276 29 59 32 74 32 160 0 88 -3 101 -33 162 -59 121 -196 224
-356 267 -104 29 -334 27 -436 -3z m286 -30 c74 -14 150 -69 184 -134 40 -79
61 -292 39 -406 -22 -121 -100 -228 -181 -251 -5 -2 -9 -4 -10 -5 -11 -11
-118 -15 -163 -6 -118 23 -188 105 -219 258 -16 75 -16 216 -1 298 24 125 117
229 220 246 22 3 41 7 42 8 4 3 53 -1 89 -8z"/>
<path d="M2338 3263 c-7 -9 -7 -13 3 -15 15 -1 14 -1 81 -12 25 -4 52 -14 59
-23 10 -12 13 -95 14 -367 1 -193 -1 -359 -3 -369 -6 -25 -50 -45 -108 -51
-27 -2 -51 -5 -53 -5 -2 -1 1 -7 7 -14 8 -10 77 -12 299 -12 258 0 288 2 291
16 2 12 -4 17 -25 16 -48 -1 -95 11 -112 28 -13 13 -16 43 -16 178 l0 162 35
-3 c24 -2 44 -13 64 -35 16 -18 59 -64 95 -103 36 -39 105 -113 153 -165 l87
-94 173 1 c203 2 188 0 188 19 0 10 -10 15 -29 15 -19 0 -44 14 -77 42 -27 24
-51 46 -54 49 -8 10 -190 207 -229 247 l-34 35 54 17 c94 29 127 53 167 119
86 145 -44 304 -268 327 -36 4 -220 7 -408 8 -264 1 -346 -2 -354 -11z m622
-48 c53 -9 106 -44 127 -84 26 -47 29 -126 8 -179 -29 -72 -85 -98 -232 -107
l-93 -6 0 189 c0 104 3 191 6 195 7 7 130 2 184 -8z"/>
</g>
</svg>
